<?xml version="1.0" encoding="UTF-8" standalone="no"?>
<!DOCTYPE svg PUBLIC "-//W3C//DTD SVG 1.1//EN" "http://www.w3.org/Graphics/SVG/1.1/DTD/svg11.dtd">
<svg width="100%" height="100%" viewBox="0 0 473 473" version="1.1" xmlns="http://www.w3.org/2000/svg" xmlns:xlink="http://www.w3.org/1999/xlink" xml:space="preserve" xmlns:serif="http://www.serif.com/" style="fill-rule:evenodd;clip-rule:evenodd;stroke-linecap:round;stroke-linejoin:round;stroke-miterlimit:1.5;">
    <g transform="matrix(1,0,0,1,-822,0)">
        <g id="Artboard2" transform="matrix(1,0,0,1,-0.055118,0)">
            <rect x="822.055" y="0" width="472.441" height="472.441" style="fill:none;"/>
            <g transform="matrix(1,0,0,1,1,-4)">
                <g transform="matrix(1,0,0,1,767.055118,-885)">
                    <path d="M181.572,1282.292C188.459,1308.565 189.877,1308.941 181.809,1334.858" style="fill:none;stroke:rgb(69,47,170);stroke-width:50px;"/>
                </g>
                <g transform="matrix(1,0,0,1,767.055118,-885)">
                    <path d="M166.935,919.661C160.72,1063.303 140.352,1092.528 238.746,1134.939C318.778,1169.436 364.124,1148.089 372.75,1256.772" style="fill:none;stroke:rgb(69,47,170);stroke-width:50px;"/>
                </g>
                <g transform="matrix(1,0,0,1,767.055118,-885)">
                    <path d="M204.758,1023.284C163.576,1023.577 164.719,1026.571 124.588,1027.767" style="fill:none;stroke:rgb(69,47,170);stroke-width:25px;"/>
                </g>
                <g transform="matrix(1,0,0,1,767.055118,-885)">
                    <path d="M216.021,965.621C212.76,960.352 178.394,904.838 162.753,909.394C157.509,910.921 162.172,915.268 111.369,954.353" style="fill:none;stroke:rgb(69,47,170);stroke-width:37.5px;"/>
                </g>
                <g transform="matrix(1,0,0,1,767.055118,-885)">
                    <path d="M255.672,1069.409C273.499,1068.218 502.034,1024.479 444.324,1281.665C434.417,1325.815 339.132,1372.606 302.994,1291.539C279.956,1239.861 272.01,1239.417 199.866,1221.95C191.988,1220.043 126.02,1204.072 134.365,1144.649" style="fill:none;stroke:rgb(254,162,219);stroke-width:50px;"/>
                </g>
            </g>
        </g>
    </g>
</svg>
