<?xml version="1.0" encoding="UTF-8" standalone="no"?>
<!DOCTYPE svg PUBLIC "-//W3C//DTD SVG 1.1//EN" "http://www.w3.org/Graphics/SVG/1.1/DTD/svg11.dtd">
<svg width="100%" height="100%" viewBox="0 0 3071 591" version="1.1" xmlns="http://www.w3.org/2000/svg" xmlns:xlink="http://www.w3.org/1999/xlink" xml:space="preserve" xmlns:serif="http://www.serif.com/" style="fill-rule:evenodd;clip-rule:evenodd;stroke-linecap:round;stroke-linejoin:round;stroke-miterlimit:1.5;">
    <g transform="matrix(1,0,0,1,-15814.464567,-147.110236)">
        <g id="Artboard6" transform="matrix(0.866667,0,0,0.833333,2205.661942,147.110236)">
            <rect x="15702.465" y="0" width="3543.307" height="708.661" style="fill:none;"/>
            <g transform="matrix(1.153846,0,0,1.2,-2568.071472,-99.732283)">
                <g transform="matrix(1,0,0,1,15824.055118,-749)">
                    <path d="M181.572,1282.292C188.459,1308.565 189.877,1308.941 181.809,1334.858" style="fill:none;stroke:rgb(254,162,219);stroke-width:50px;"/>
                </g>
                <g transform="matrix(1,0,0,1,15811.055118,-733)">
                    <path d="M553.024,1027.748C559.945,1212.593 560.242,1212.292 552.544,1313.704" style="fill:none;stroke:rgb(254,162,219);stroke-width:50px;"/>
                </g>
                <g transform="matrix(1,0,0,1,15811.055118,-733)">
                    <path d="M753.34,1044.583C661.077,1041.977 584.114,1036.004 556.404,1205.536" style="fill:none;stroke:rgb(254,162,219);stroke-width:50px;"/>
                </g>
                <g transform="matrix(1,0,0,1,15799.055118,-734)">
                    <path d="M821.029,1056.278C915.888,1031.451 971.807,1022.13 968.968,1175.949C968.006,1228.094 967.633,1227.679 965.019,1279.761C963.806,1303.949 992.256,1317.528 995.874,1319.255" style="fill:none;stroke:rgb(254,162,219);stroke-width:50px;"/>
                </g>
                <g transform="matrix(1,0,0,1,15799.055118,-734)">
                    <path d="M948.637,1185.354C902.936,1137.078 818.135,1173.785 815.019,1251.928C813.199,1297.579 872.378,1354.05 945.892,1283.135" style="fill:none;stroke:rgb(254,162,219);stroke-width:50px;"/>
                </g>
                <g transform="matrix(1,0,0,1,15782.055118,-729)">
                    <path d="M1093.765,1053.175C1063.023,1217 1096.691,1267.394 1125.319,1302.306" style="fill:none;stroke:rgb(254,162,219);stroke-width:50px;"/>
                </g>
                <g transform="matrix(1,0,0,1,15782.055118,-729)">
                    <path d="M1083.213,890.709C1093.127,901.173 1090.189,901.587 1094.85,915.569" style="fill:none;stroke:rgb(254,162,219);stroke-width:50px;"/>
                </g>
                <g transform="matrix(1,0,0,1,15765.055118,-727)">
                    <path d="M1229.337,1036.058C1237.912,1170.585 1235.685,1169.478 1235.612,1305.288" style="fill:none;stroke:rgb(254,162,219);stroke-width:50px;"/>
                </g>
                <g transform="matrix(1,0,0,1,15765.055118,-727)">
                    <path d="M1234.695,1099.065C1326.542,988.647 1412.289,1058.71 1415.597,1063.672C1442.877,1104.591 1438.348,1197.43 1438.323,1298.261" style="fill:none;stroke:rgb(254,162,219);stroke-width:50px;"/>
                </g>
                <g transform="matrix(1,0,0,1,15732.055118,-727)">
                    <path d="M1535.142,1015.921C1587.364,1143.972 1610.858,1200.899 1636.993,1300.126C1653.711,1180.459 1711.417,1055.477 1720.731,1035.304C1782.562,1194.61 1839.64,1277.501 1852.935,1296.809C1897.139,1126.818 1924.55,1070.913 1946.926,1015.693" style="fill:none;stroke:rgb(69,47,170);stroke-width:50px;"/>
                </g>
                <g transform="matrix(1,0,0,1,15732.055118,-727)">
                    <path d="M2068.299,1046.34C2115.962,994.099 2234.672,976.141 2242.193,1106.826C2250.084,1243.939 2250.325,1336.694 2125.927,1309.05C2031.821,1288.137 2057.644,1198.088 2063.065,1054.01" style="fill:none;stroke:rgb(69,47,170);stroke-width:50px;"/>
                </g>
                <g transform="matrix(1,0,0,1,15732.055118,-727)">
                    <path d="M2350.01,1006.013C2353.528,1158.284 2351.521,1157.575 2343.202,1309.674" style="fill:none;stroke:rgb(69,47,170);stroke-width:50px;"/>
                </g>
                <g transform="matrix(1,0,0,1,15732.055118,-727)">
                    <path d="M2548.33,1000.965C2405.14,969.145 2359.407,1131.429 2354.091,1150.295" style="fill:none;stroke:rgb(69,47,170);stroke-width:50px;"/>
                </g>
                <g transform="matrix(1,0,0,1,15729.055118,-705)">
                    <path d="M2635.46,982.11C2640.065,1149.055 2621.171,1215.828 2637.183,1286.994" style="fill:none;stroke:rgb(69,47,170);stroke-width:50px;"/>
                </g>
                <g transform="matrix(1,0,0,1,15729.055118,-705)">
                    <path d="M2637.197,1078.624C2678.878,1038.489 2730.666,971.227 2810.215,999.957C2880.463,1025.329 2853.455,1193.427 2852.653,1288.745" style="fill:none;stroke:rgb(69,47,170);stroke-width:50px;"/>
                </g>
                <g transform="matrix(1,0,0,1,15729.055118,-705)">
                    <path d="M2856.474,1071.56C2867.816,1053.683 2878.681,1005.026 2974.236,1002.151C3082.215,998.901 3056.234,1193.925 3056.933,1290.035" style="fill:none;stroke:rgb(69,47,170);stroke-width:50px;"/>
                </g>
                <g transform="matrix(1,0,0,1,15824.055118,-749)">
                    <path d="M204.758,1023.284C163.576,1023.577 164.719,1026.571 124.588,1027.767" style="fill:none;stroke:rgb(254,162,219);stroke-width:25px;"/>
                </g>
                <g transform="matrix(1,0,0,1,15824.055118,-749)">
                    <path d="M216.021,965.621C212.76,960.352 178.394,904.838 162.753,909.394C157.509,910.921 162.172,915.268 111.369,954.353" style="fill:none;stroke:rgb(254,162,219);stroke-width:37.5px;"/>
                </g>
                <g transform="matrix(1,0,0,1,15824.055118,-749)">
                    <path d="M166.935,919.661C160.72,1063.303 140.352,1092.528 238.746,1134.939C318.778,1169.436 364.124,1148.089 372.75,1256.772" style="fill:none;stroke:rgb(254,162,219);stroke-width:50px;"/>
                </g>
                <g transform="matrix(1,0,0,1,15824.055118,-749)">
                    <path d="M255.672,1069.409C273.499,1068.218 502.034,1024.479 444.324,1281.665C434.417,1325.815 339.132,1372.606 302.994,1291.539C279.956,1239.861 272.01,1239.417 199.866,1221.95C191.988,1220.043 126.02,1204.072 134.365,1144.649" style="fill:none;stroke:rgb(254,162,219);stroke-width:50px;"/>
                </g>
            </g>
        </g>
    </g>
</svg>
